<svg xmlns="http://www.w3.org/2000/svg" viewBox="0 0 60.11 58.95"><defs><style>.cls-1{fill:#eaa274;}</style></defs><g id="Layer_2" data-name="Layer 2"><g id="_Layer_" data-name="&lt;Layer&gt;"><path class="cls-1" d="M48.73,11.52C43.74,6.53,38,0,30.35,0S17.23,6.81,12.24,11.8,0,22.29,0,29.91,6.69,43.58,11.68,48.57,22.73,59,30.35,59s16.44-2.62,21.43-7.61,8.33-13.82,8.33-21.43S53.72,16.51,48.73,11.52ZM9.36,17.25l5.87,3.1-.47.89L8.9,18.13Zm-3,14.91-.09-1,6.61-.6.09,1ZM11.92,45.3l-.62-.79,5.21-4.11.62.78Zm10-31.74L18.67,7.75l.88-.48,3.22,5.8Zm1.85,39.71L22.79,53l2.12-6.29.94.32ZM53.93,18.84l.41.92-6.08,2.67-.4-.91ZM31.74,11h-1V4.37h1ZM37,53.75l-1.66-6.43,1-.25L38,53.5Zm3.84-40,3.63-5.56.84.55L41.7,14.27Zm8.52,32.92-4.9-4.48.67-.74,4.91,4.48ZM49.3,32.86l.16-1L56,33l-.17,1Z"/></g></g></svg>